<svg width="32" height="24" viewBox="0 0 32 24" fill="none" xmlns="http://www.w3.org/2000/svg">
  <rect width="32" height="24" fill="#F0F0F0"/>
  <path d="M32 0H0V24H32V0Z" fill="#012169"/>
  <path d="M32 0V3L20 12L32 21V24H29L17 15L5 24H0V21L12 12L0 3V0H3L17 9L29 0H32Z" fill="white"/>
  <path d="M21.3333 14.1667L32 21V24L18.6667 14.1667H21.3333ZM12 15L12.3333 16.8333L2 24H0L12 15ZM32 0V0.166667L19.3333 9.16667L19.6667 7L29.3333 0H32ZM0 0L11.3333 8H8.33333L0 2.33333V0Z" fill="#C8102E"/>
  <path d="M12 0V24H20V0H12ZM0 8V16H32V8H0Z" fill="white"/>
  <path d="M0 9.66667V14.3333H32V9.66667H0ZM13.3333 0V24H18.6667V0H13.3333Z" fill="#C8102E"/>
</svg> 